#!OML:ASF X:\für Bonn\!DataBase\2005_08_12_Daniel\c3d\Daniel.ASF
:FULLY-SPECIFIED
:DEGREES
391
root 15.0095 1.30707 1.06092 -718.285 -83.0716 -109.974
lowerback 22.8133 -3.25159 3.65339
upperback 4.27895 -3.81245 -0.894667
thorax -8.2946 -2.08809 -1.91687
lowerneck -3.98592 1.79925 -8.6722
upperneck 4.38414 2.77185 2.52171
head 1.93888 1.28725 2.40704
rclavicle 4.21423e-014 -7.34183e-014
rhumerus -48.106 -15.4457 -68.5535
rradius 12.5729
rwrist 63.9394
rhand -13.5821 -344.733
rfingers 7.12502
rthumb 12.5321 -374.337
lclavicle 4.21423e-014 -7.34183e-014
lhumerus -404.956 8.17235 -287.022
lradius 18.5054
lwrist -53.3179
lhand -8.3743 353.182
lfingers 7.12502
lthumb 17.5487 382.41
rfemur 191.46 -185.053 198.361
rtibia 25.2193
rfoot 25.3431 -19.9198
rtoes 15.8251
lfemur 6.65455 -25.9276 -22.5943
ltibia 32.5658
lfoot 14.4051 17.4924
ltoes 2.17576
392
root 15.0046 1.30807 1.05846 -718.193 -83.1486 -109.599
lowerback 22.3542 -3.20009 3.5747
upperback 4.07841 -3.76117 -0.894417
thorax -8.26772 -2.05547 -1.90288
lowerneck -4.32335 1.78617 -8.63457
upperneck 4.46755 2.78612 2.47865
head 2.02764 1.29277 2.39491
rclavicle 1.02175e-013 -1.52657e-013
rhumerus -48.2658 -15.4843 -68.3638
rradius 12.5673
rwrist 64.263
rhand -13.5005 -344.845
rfingers 7.12502
rthumb 12.6107 -374.445
lclavicle 1.02175e-013 -1.52657e-013
lhumerus -405.045 7.91745 -286.841
lradius 18.4437
lwrist -53.3732
lhand -8.4767 352.925
lfingers 7.12502
lthumb 17.4501 382.162
rfemur 191.926 -186.222 198.803
rtibia 23.7174
rfoot 24.4054 -21.8234
rtoes 15.4803
lfemur 6.4169 -26.3684 -22.677
ltibia 32.256
lfoot 13.7036 17.8198
ltoes 2.44412
393
root 14.9992 1.30968 1.05765 -718.317 -83.2287 -109.102
lowerback 21.978 -3.14696 3.49414
upperback 3.90762 -3.70866 -0.907788
thorax -8.25101 -2.02335 -1.89976
lowerneck -4.66083 1.76946 -8.5963
upperneck 4.55611 2.79473 2.45174
head 2.11868 1.29577 2.38822
rclavicle -1.29608e-013 8.54743e-014
rhumerus -48.4218 -15.4926 -68.2242
rradius 12.5384
rwrist 64.4213
rhand -13.3648 -345.037
rfingers 7.12502
rthumb 12.7415 -374.628
lclavicle -1.29608e-013 8.54743e-014
lhumerus -405.142 7.69948 -286.693
lradius 18.39
lwrist -53.4213
lhand -8.56665 352.716
lfingers 7.12502
lthumb 17.3635 381.961
rfemur 192.408 -187.493 199.262
rtibia 22.4406
rfoot 23.1559 -23.7284
rtoes 15.0557
lfemur 6.28356 -26.6613 -22.7456
ltibia 31.8937
lfoot 13.1901 18.1829
ltoes 2.9208
394
root 14.9959 1.31152 1.05682 -718.574 -83.3386 -108.491
lowerback 21.6105 -3.08538 3.39058
upperback 3.75597 -3.65103 -0.922238
thorax -8.21521 -1.98842 -1.886
lowerneck -5.00567 1.74942 -8.56527
upperneck 4.61061 2.79921 2.43044
head 2.20027 1.29754 2.38429
rclavicle -3.44891e-014 6.69974e-014
rhumerus -48.5626 -15.5795 -68.0011
rradius 12.507
rwrist 64.681
rhand -13.1536 -345.142
rfingers 7.12502
rthumb 12.9451 -374.721
lclavicle -3.44891e-014 6.69974e-014
lhumerus -405.225 7.4178 -286.502
lradius 18.3654
lwrist -53.3267
lhand -8.57265 352.485
lfingers 7.12502
lthumb 17.3578 381.73
rfemur 192.833 -188.927 199.754
rtibia 21.3768
rfoot 21.5515 -25.6921
rtoes 15.3425
lfemur 6.15063 -26.7544 -22.7448
ltibia 31.5039
lfoot 12.9068 18.4942
ltoes 3.34466
395
root 14.9914 1.3127 1.05633 -718.983 -83.448 -107.741
lowerback 21.2821 -3.02842 3.29083
upperback 3.59168 -3.59785 -0.953655
thorax -8.21499 -1.95627 -1.88914
lowerneck -5.35629 1.73561 -8.57082
upperneck 4.71175 2.81273 2.46758
head 2.29759 1.30384 2.40821
rclavicle 8.98507e-014 -5.94296e-014
rhumerus -48.6949 -15.551 -67.9006
rradius 12.4598
rwrist 64.6934
rhand -12.9179 -345.266
rfingers 7.12502
rthumb 13.1724 -374.83
lclavicle 8.98507e-014 -5.94296e-014
lhumerus -405.329 7.23041 -286.416
lradius 18.3227
lwrist -53.3472
lhand -8.54999 352.237
lfingers 7.12502
lthumb 17.3796 381.48
rfemur 193.187 -190.48 200.261
rtibia 20.5145
rfoot 19.4349 -27.7268
rtoes 16.5944
lfemur 5.97628 -26.6821 -22.6791
ltibia 31.1279
lfoot 12.8442 18.7721
ltoes 3.88236
396
root 14.9845 1.31469 1.05637 -719.54 -83.5706 -106.849
lowerback 20.9395 -2.96221 3.16447
upperback 3.43849 -3.5384 -0.978005
thorax -8.19176 -1.92027 -1.87181
lowerneck -5.66985 1.71993 -8.57531
upperneck 4.76564 2.82086 2.47821
head 2.37317 1.3076 2.42122
rclavicle -6.87795e-014 8.89243e-014
rhumerus -48.8373 -15.6671 -67.6462
rradius 12.3925
rwrist 64.9089
rhand -12.7126 -345.36
rfingers 7.12502
rthumb 13.3702 -374.911
lclavicle -6.87795e-014 8.89243e-014
lhumerus -405.412 7.19483 -286.436
lradius 18.2165
lwrist -53.5373
lhand -8.5922 351.91
lfingers 7.12502
lthumb 17.339 381.156
rfemur 193.486 -192.119 200.773
rtibia 19.845
rfoot 16.5368 -29.6354
rtoes 19.1793
lfemur 5.78528 -26.5273 -22.5905
ltibia 30.7943
lfoot 12.7593 19.1267
ltoes 4.47672
397
root 14.9763 1.31604 1.05777 -719.949 -83.7547 -106.117
lowerback 20.6226 -2.88301 3.07199
upperback 3.28692 -3.45313 -1.00463
thorax -8.18032 -1.8729 -1.88199
lowerneck -6.0449 1.69746 -8.6056
upperneck 4.87612 2.8276 2.49965
head 2.4794 1.30919 2.44533
rclavicle 5.35725e-014 -2.82061e-014
rhumerus -48.9843 -15.8464 -67.328
rradius 12.3223
rwrist 65.205
rhand -12.4648 -345.384
rfingers 7.12502
rthumb 13.609 -374.919
lclavicle 5.35725e-014 -2.82061e-014
lhumerus -405.527 7.15391 -286.466
lradius 18.1789
lwrist -53.6839
lhand -8.49994 351.589
lfingers 7.12502
lthumb 17.4277 380.827
rfemur 193.708 -193.783 201.274
rtibia 19.335
rfoot 12.8884 -31.1599
rtoes 21.748
lfemur 5.55815 -26.2968 -22.4678
ltibia 30.5368
lfoot 12.7197 19.5538
ltoes 4.76703
398
root 14.9643 1.31617 1.06093 -720.292 -84.0138 -105.482
lowerback 20.3514 -2.78282 2.9921
upperback 3.12842 -3.3361 -1.04107
thorax -8.19978 -1.81089 -1.91623
lowerneck -6.3166 1.67771 -8.62183
upperneck 4.92195 2.82588 2.54109
head 2.54541 1.30904 2.46975
rclavicle -9.24349e-015 8.12222e-016
rhumerus -49.1788 -16.1357 -66.9179
rradius 12.2322
rwrist 65.6537
rhand -12.2527 -345.393
rfingers 7.12502
rthumb 13.8135 -374.914
lclavicle -9.24349e-015 8.12222e-016
lhumerus -405.647 7.20271 -286.608
lradius 18.0762
lwrist -53.9218
lhand -8.47946 351.291
lfingers 7.12502
lthumb 17.4475 380.528
rfemur 193.868 -195.438 201.742
rtibia 18.9892
rfoot 8.72795 -32.164
rtoes 24.1393
lfemur 5.3549 -26.0505 -22.3585
ltibia 30.3438
lfoot 12.4901 20.1716
ltoes 5.06505
399
root 14.9515 1.31473 1.06562 -720.617 -84.2843 -104.849
lowerback 20.0597 -2.68193 2.9321
upperback 2.9864 -3.21452 -1.07169
thorax -8.18995 -1.74721 -1.95722
lowerneck -6.66371 1.65261 -8.65676
upperneck 5.00744 2.82672 2.56568
head 2.63912 1.30824 2.49475
rclavicle 1.90833e-014 -1.38506e-013
rhumerus -49.2571 -16.112 -66.818
rradius 12.1931
rwrist 65.6433
rhand -12.0617 -345.399
rfingers 7.12502
rthumb 13.9976 -374.908
lclavicle 1.90833e-014 -1.38506e-013
lhumerus -405.73 7.21219 -286.692
lradius 17.9872
lwrist -54.0322
lhand -8.42609 351.013
lfingers 7.12502
lthumb 17.4988 380.245
rfemur 193.96 -197.191 202.229
rtibia 18.7668
rfoot 4.01856 -32.7484
rtoes 26.6005
lfemur 5.09181 -25.8267 -22.2244
ltibia 30.2286
lfoot 12.1316 20.9135
ltoes 5.38151
400
root 14.9403 1.31406 1.07085 -720.788 -84.595 -104.408
lowerback 19.8035 -2.57395 2.8927
upperback 2.85217 -3.07867 -1.10267
thorax -8.19042 -1.67762 -2.0123
lowerneck -7.01131 1.62829 -8.72276
upperneck 5.09362 2.82932 2.6341
head 2.733 1.30931 2.5407
rclavicle 9.31306e-014 -1.15272e-013
rhumerus -49.4082 -16.4315 -66.3851
rradius 12.1142
rwrist 66.1704
rhand -11.9405 -345.274
rfingers 7.12502
rthumb 14.1143 -374.775
lclavicle 9.31306e-014 -1.15272e-013
lhumerus -405.834 7.25827 -286.805
lradius 17.9053
lwrist -54.1788
lhand -8.41833 350.842
lfingers 7.12502
lthumb 17.5063 380.074
rfemur 194.04 -198.932 202.719
rtibia 18.6519
rfoot -0.436595 -32.8191
rtoes 28.6001
lfemur 4.85921 -25.6069 -22.0919
ltibia 30.1774
lfoot 11.6612 21.6858
ltoes 6.27928
401
root 14.9286 1.31359 1.0753 -720.879 -84.8609 -104.06
lowerback 19.5828 -2.47811 2.87878
upperback 2.6999 -2.95184 -1.1306
thorax -8.231 -1.61359 -2.07387
lowerneck -7.32234 1.59214 -8.81874
upperneck 5.18605 2.81465 2.72821
head 2.82335 1.30201 2.59984
rclavicle 1.46107e-014 -2.96313e-015
rhumerus -49.5585 -16.4982 -66.1873
rradius 12.0922
rwrist 66.3712
rhand -11.8483 -345.206
rfingers 7.12502
rthumb 14.2032 -374.701
lclavicle 1.46107e-014 -2.96313e-015
lhumerus -405.954 7.19354 -286.873
lradius 17.8161
lwrist -54.2262
lhand -8.436 350.72
lfingers 7.12502
lthumb 17.4893 379.953
rfemur 194.106 -200.589 203.206
rtibia 18.6247
rfoot -4.67163 -32.5166
rtoes 30.128
lfemur 4.58022 -25.2672 -21.8829
ltibia 30.1804
lfoot 11.2659 22.3089
ltoes 7.24279
402
root 14.9171 1.3151 1.07847 -720.605 -85.0676 -104.08
lowerback 19.3177 -2.41103 2.8751
upperback 2.57429 -2.86157 -1.13002
thorax -8.21891 -1.56724 -2.10196
lowerneck -7.68407 1.56444 -8.90532
upperneck 5.29906 2.81818 2.77593
head 2.93001 1.30157 2.64405
rclavicle 3.20043e-014 -5.44437e-014
rhumerus -49.6605 -16.5867 -65.9355
rradius 12.0548
rwrist 66.6209
rhand -11.7515 -345.084
rfingers 7.12502
rthumb 14.2964 -374.572
lclavicle 3.20043e-014 -5.44437e-014
lhumerus -406.072 7.3628 -287.068
lradius 17.7233
lwrist -54.4936
lhand -8.43459 350.613
lfingers 7.12502
lthumb 17.4906 379.846
rfemur 194.141 -202.052 203.675
rtibia 18.6664
rfoot -8.66161 -31.9212
rtoes 30.9893
lfemur 4.22928 -24.7188 -21.5428
ltibia 30.2065
lfoot 11.228 22.6117
ltoes 7.89782
403
root 14.907 1.32004 1.07928 -720.6 -85.2112 -103.858
lowerback 19.0344 -2.35085 2.86155
upperback 2.47458 -2.78574 -1.14764
thorax -8.16956 -1.52778 -2.14086
lowerneck -7.98656 1.52868 -8.97735
upperneck 5.35366 2.80289 2.84094
head 3.00698 1.29429 2.68815
rclavicle -5.86415e-014 9.0329e-014
rhumerus -49.7905 -16.8654 -65.5658
rradius 12.0038
rwrist 67.0957
rhand -11.7074 -344.925
rfingers 7.12502
rthumb 14.3389 -374.41
lclavicle -5.86415e-014 9.0329e-014
lhumerus -406.163 7.32728 -287.146
lradius 17.6481
lwrist -54.5255
lhand -8.47036 350.519
lfingers 7.12502
lthumb 17.4562 379.756
rfemur 194.162 -203.215 204.024
rtibia 18.7295
rfoot -11.9611 -31.2642
rtoes 31.2568
lfemur 3.94551 -24.322 -21.2911
ltibia 30.2457
lfoot 11.049 22.9844
ltoes 8.43841
404
root 14.8999 1.32673 1.07786 -720.639 -85.2764 -103.6
lowerback 18.7682 -2.32475 2.82778
upperback 2.35835 -2.75796 -1.15413
thorax -8.14863 -1.5113 -2.14239
lowerneck -8.24665 1.50458 -9.0658
upperneck 5.42731 2.80095 2.91338
head 3.08164 1.29299 2.73797
rclavicle 1.26825e-013 -1.28934e-013
rhumerus -49.9016 -16.9479 -65.341
rradius 11.9652
rwrist 67.3488
rhand -11.6603 -344.817
rfingers 7.12502
rthumb 14.3844 -374.298
lclavicle 1.26825e-013 -1.28934e-013
lhumerus -406.309 7.25821 -287.201
lradius 17.5921
lwrist -54.467
lhand -8.53167 350.536
lfingers 7.12502
lthumb 17.3972 379.778
rfemur 194.138 -203.942 204.206
rtibia 18.785
rfoot -14.6405 -30.7328
rtoes 31.2908
lfemur 3.69908 -24.0925 -21.0811
ltibia 30.2681
lfoot 10.7915 23.4183
ltoes 8.84516
405
root 14.8944 1.3343 1.07497 -720.435 -85.3186 -103.592
lowerback 18.4892 -2.30396 2.81758
upperback 2.25369 -2.73308 -1.15858
thorax -8.10884 -1.4969 -2.15479
lowerneck -8.48329 1.47632 -9.17427
upperneck 5.49064 2.79144 3.02324
head 3.14872 1.28939 2.80355
rclavicle -8.8658e-014 1.31695e-014
rhumerus -50.0404 -17.1238 -65.0479
rradius 11.9359
rwrist 67.6831
rhand -11.6542 -344.698
rfingers 7.12502
rthumb 14.3902 -374.18
lclavicle -8.8658e-014 1.31695e-014
lhumerus -406.425 7.21508 -287.273
lradius 17.5116
lwrist -54.4215
lhand -8.59472 350.598
lfingers 7.12502
lthumb 17.3365 379.845
rfemur 194.02 -204.175 204.175
rtibia 18.8134
rfoot -16.3102 -30.4998
rtoes 30.8715
lfemur 3.47779 -23.8838 -20.8543
ltibia 30.2563
lfoot 10.5197 23.8622
ltoes 8.97485
